<svg width="143" height="43" viewBox="0 0 143 43" fill="none" xmlns="http://www.w3.org/2000/svg">
<g id="Group">
<path id="Vector" d="M142.052 37.3681C142.052 37.9014 141.946 38.4295 141.742 38.9221C141.538 39.4147 141.239 39.8623 140.861 40.2391C140.484 40.616 140.036 40.9149 139.543 41.1185C139.05 41.3222 138.522 41.4268 137.988 41.4262H5.01206C3.93428 41.4274 2.90018 41.0005 2.13718 40.2395C1.37418 39.4785 0.944764 38.4456 0.943359 37.3681V5.00625C0.944763 3.92827 1.37401 2.89491 2.13686 2.13306C2.89971 1.37121 3.93379 0.943151 5.01206 0.942871H137.987C138.521 0.942871 139.049 1.04798 139.542 1.2522C140.035 1.45642 140.483 1.75574 140.861 2.13307C141.238 2.51041 141.537 2.95836 141.742 3.45134C141.946 3.94433 142.051 4.47269 142.051 5.00625L142.052 37.3681Z" fill="white"/>
<path id="Vector_2" d="M137.988 42.3704H5.01195C3.68425 42.3701 2.41089 41.8433 1.47127 40.9055C0.531651 39.9678 0.00252625 38.6956 0 37.3683L0 5.00744C0.00196414 3.67944 0.530739 2.40644 1.47033 1.46769C2.40992 0.528948 3.68359 0.00112089 5.01195 0L137.987 0C139.315 0.00168018 140.589 0.529687 141.528 1.46831C142.468 2.40693 142.996 3.67961 142.999 5.00744V37.3683C143.001 40.1274 140.749 42.3704 137.988 42.3704Z" fill="#A6A6A6"/>
<path id="Vector_3" d="M142.052 37.3681C142.052 37.9014 141.946 38.4295 141.742 38.9221C141.538 39.4147 141.239 39.8623 140.861 40.2391C140.484 40.616 140.036 40.9149 139.543 41.1185C139.05 41.3222 138.522 41.4268 137.988 41.4262H5.01206C3.93428 41.4274 2.90018 41.0005 2.13718 40.2395C1.37418 39.4785 0.944764 38.4456 0.943359 37.3681V5.00625C0.944763 3.92827 1.37401 2.89491 2.13686 2.13306C2.89971 1.37121 3.93379 0.943151 5.01206 0.942871H137.987C138.521 0.942871 139.049 1.04798 139.542 1.2522C140.035 1.45642 140.483 1.75574 140.861 2.13307C141.238 2.51041 141.537 2.95836 141.742 3.45134C141.946 3.94433 142.051 4.47269 142.051 5.00625L142.052 37.3681Z" fill="black"/>
<path id="Vector_4" d="M31.93 20.9623C31.8993 17.5474 34.7269 15.886 34.8562 15.8087C33.2548 13.4745 30.7727 13.1556 29.9004 13.1301C27.8157 12.9108 25.7936 14.3772 24.7316 14.3772C23.6485 14.3772 22.0131 13.1513 20.2506 13.1874C17.9826 13.2223 15.8608 14.5351 14.6971 16.5737C12.2955 20.7303 14.0867 26.8386 16.3876 30.1985C17.5385 31.845 18.8835 33.6812 20.6438 33.6166C22.3661 33.5466 23.0094 32.5199 25.0877 32.5199C27.147 32.5199 27.7511 33.6166 29.5464 33.5753C31.3948 33.5466 32.5585 31.9224 33.6692 30.262C34.9993 28.3771 35.5334 26.5186 35.5546 26.4233C35.5122 26.4084 31.966 25.0543 31.93 20.9623ZM28.5385 10.9199C29.4648 9.76182 30.0986 8.18627 29.9227 6.5874C28.582 6.64674 26.9053 7.51451 25.9398 8.64717C25.0856 9.64527 24.3225 11.2812 24.5197 12.8197C26.0257 12.932 27.572 12.06 28.5385 10.9199Z" fill="white"/>
<path id="Vector_5" d="M137.989 0H66.7627L94.6607 42.3704H137.989C139.317 42.3693 140.59 41.8418 141.53 40.9035C142.469 39.9652 142.998 38.6927 143.001 37.3651V5.00744C142.998 3.67952 142.47 2.40668 141.53 1.468C140.591 0.529318 139.317 0.00140064 137.989 0Z" fill="url(#paint0_linear_3323_117138)"/>
<g id="Group_2">
<path id="Vector_6" d="M56.876 33.38H54.4691L53.1507 29.2383H48.5679L47.312 33.38H44.9688L49.5101 19.2795H52.3145L56.876 33.38ZM52.7532 27.5006L51.5609 23.8187C51.4348 23.4425 51.1974 22.5567 50.8498 21.1624H50.8074C50.6675 21.7621 50.4438 22.6478 50.1376 23.8187L48.9654 27.5006H52.7532ZM68.532 28.1713C68.532 29.9005 68.0625 31.2673 67.1224 32.2707C66.2809 33.1639 65.2349 33.61 63.9874 33.61C62.6404 33.61 61.6717 33.13 61.0835 32.1679V37.5028H58.8239V26.5544C58.8239 25.4684 58.7953 24.3548 58.7402 23.2126H60.7274L60.8535 24.8242H60.8959C61.6495 23.6099 62.793 23.0028 64.3277 23.0028C65.5274 23.0028 66.5289 23.4764 67.3302 24.4247C68.1303 25.3751 68.532 26.6233 68.532 28.1713ZM66.2301 28.2539C66.2301 27.2643 66.0075 26.4485 65.5602 25.8053C65.0717 25.1367 64.4156 24.8019 63.5932 24.8019C63.0357 24.8019 62.5291 24.9884 62.0766 25.3561C61.623 25.7269 61.3262 26.2111 61.1874 26.8108C61.1254 27.0351 61.0902 27.2659 61.0824 27.4985V29.1948C61.0824 29.9333 61.3093 30.5574 61.7629 31.0681C62.2165 31.5767 62.8057 31.832 63.5307 31.832C64.3817 31.832 65.0441 31.5025 65.5178 30.8488C65.9927 30.1929 66.2301 29.3283 66.2301 28.2539ZM80.2294 28.1713C80.2294 29.9005 79.7599 31.2673 78.8198 32.2707C77.9772 33.1639 76.9322 33.61 75.6838 33.61C74.3367 33.61 73.368 33.13 72.7798 32.1679V37.5028H70.5203V26.5544C70.5203 25.4684 70.4916 24.3548 70.4365 23.2126H72.4237L72.5498 24.8242H72.5922C73.3447 23.6099 74.4883 23.0028 76.024 23.0028C77.2226 23.0028 78.2242 23.4764 79.0275 24.4247C79.8266 25.3751 80.2294 26.6233 80.2294 28.1713ZM77.9264 28.2539C77.9264 27.2643 77.7027 26.4485 77.2555 25.8053C76.7669 25.1367 76.113 24.8019 75.2906 24.8019C74.7331 24.8019 74.2265 24.9884 73.7718 25.3561C73.3182 25.7269 73.0225 26.2111 72.8837 26.8108C72.8148 27.0905 72.7777 27.3184 72.7777 27.4985V29.1948C72.7777 29.9333 73.0056 30.5574 73.4571 31.0681C73.9107 31.5756 74.4999 31.832 75.227 31.832C76.0791 31.832 76.7415 31.5025 77.2142 30.8488C77.689 30.1929 77.9264 29.3283 77.9264 28.2539ZM93.3077 29.4247C93.3077 30.6252 92.888 31.6011 92.0539 32.3544C91.1361 33.1766 89.8548 33.5888 88.212 33.5888C86.6944 33.5888 85.4777 33.2963 84.5599 32.7104L85.0824 30.8276C86.0733 31.4146 87.1618 31.707 88.3466 31.707C89.1987 31.707 89.8611 31.5142 90.3338 31.1317C90.8076 30.7481 91.0471 30.2353 91.0471 29.5953C91.0471 29.0221 90.8489 28.5421 90.4599 28.1512C90.0689 27.7612 89.4224 27.3978 88.5141 27.0641C86.0447 26.1433 84.8089 24.7966 84.8089 23.025C84.8089 21.868 85.2456 20.9208 86.1168 20.1802C86.9879 19.4406 88.1432 19.0708 89.5803 19.0708C90.8637 19.0708 91.9331 19.2944 92.782 19.7404L92.215 21.5819C91.4159 21.1496 90.514 20.9335 89.505 20.9335C88.708 20.9335 88.0827 21.1295 87.6355 21.5194C87.2593 21.868 87.0685 22.2929 87.0685 22.7972C87.0685 23.3535 87.2857 23.8155 87.7182 24.1778C88.0933 24.5116 88.778 24.875 89.7679 25.2649C90.9824 25.7545 91.8748 26.3245 92.4461 26.9793C93.0216 27.6341 93.3077 28.451 93.3077 29.4247ZM100.798 24.9079H98.307V29.8443C98.307 31.0999 98.7457 31.7261 99.6254 31.7261C100.029 31.7261 100.364 31.6922 100.629 31.6212L100.692 33.3366C100.246 33.503 99.6604 33.5867 98.9344 33.5867C98.042 33.5867 97.3446 33.3144 96.8412 32.7697C96.3399 32.2251 96.0877 31.3129 96.0877 30.0287V24.9036H94.6039V23.2083H96.0877V21.3467L98.307 20.6771V23.2083H100.798V24.9079ZM112.013 28.2126C112.013 29.7755 111.565 31.0586 110.673 32.062C109.739 33.095 108.497 33.61 106.949 33.61C105.454 33.61 104.266 33.1152 103.38 32.1266C102.494 31.1359 102.051 29.8878 102.051 28.3821C102.051 26.8066 102.509 25.5161 103.422 24.5127C104.336 23.5082 105.568 23.006 107.116 23.006C108.609 23.006 109.807 23.5018 110.714 24.4915C111.581 25.4514 112.013 26.6911 112.013 28.2126ZM109.67 28.2645C109.67 27.3332 109.469 26.5343 109.065 25.8657C108.592 25.0583 107.913 24.6546 107.035 24.6546C106.13 24.6546 105.435 25.0583 104.963 25.8657C104.558 26.5343 104.356 27.347 104.356 28.3069C104.356 29.2393 104.558 30.0403 104.963 30.7068C105.451 31.5142 106.133 31.9179 107.016 31.9179C107.879 31.9179 108.557 31.5057 109.046 30.6867C109.462 30.0022 109.67 29.198 109.67 28.2645ZM119.361 25.1992C119.126 25.1568 118.887 25.1359 118.648 25.1367C117.853 25.1367 117.239 25.4355 116.806 26.0374C116.431 26.5671 116.243 27.2368 116.243 28.0452V33.38H113.983V26.4146C113.985 25.3472 113.963 24.28 113.917 23.2136H115.885L115.968 25.159H116.031C116.27 24.4904 116.645 23.9511 117.16 23.5474C117.632 23.1947 118.205 23.0036 118.794 23.0028C119.002 23.0028 119.191 23.0176 119.358 23.0441L119.361 25.1992ZM129.466 27.8153C129.472 28.1587 129.444 28.5018 129.383 28.8399H122.605C122.63 29.8443 122.959 30.6136 123.588 31.1433C124.159 31.6159 124.898 31.8532 125.805 31.8532C126.809 31.8532 127.725 31.6943 128.548 31.3733L128.902 32.9403C127.94 33.3599 126.804 33.5686 125.493 33.5686C123.916 33.5686 122.678 33.1046 121.777 32.1785C120.878 31.2514 120.428 30.0054 120.428 28.4447C120.428 26.9125 120.846 25.6358 121.685 24.6176C122.562 23.5305 123.748 22.9869 125.24 22.9869C126.706 22.9869 127.816 23.5305 128.569 24.6176C129.166 25.479 129.466 26.547 129.466 27.8153ZM127.311 27.2294C127.327 26.5587 127.179 25.9812 126.873 25.4927C126.482 24.8634 125.88 24.5497 125.073 24.5497C124.334 24.5497 123.732 24.856 123.274 25.4705C122.898 25.9589 122.675 26.5459 122.606 27.2272L127.311 27.2294Z" fill="white"/>
</g>
<g id="Group_3">
<path id="Vector_7" d="M47.9165 14.2945C47.288 14.2945 46.7443 14.2638 46.2917 14.2119V7.39473C46.9247 7.29698 47.5643 7.2488 48.2047 7.25063C50.796 7.25063 51.9894 8.52527 51.9894 10.6031C51.9894 12.9998 50.5798 14.2945 47.9165 14.2945ZM48.2959 8.12476C47.9461 8.12476 47.6483 8.14595 47.4014 8.19681V13.3791C47.5349 13.4003 47.7914 13.4098 48.1518 13.4098C49.8496 13.4098 50.8162 12.4435 50.8162 10.6338C50.8162 9.02008 49.9418 8.12476 48.2959 8.12476ZM55.7084 14.3464C54.2479 14.3464 53.3015 13.2562 53.3015 11.776C53.3015 10.2333 54.268 9.13345 55.791 9.13345C57.2303 9.13345 58.1979 10.1718 58.1979 11.6944C58.1979 13.2562 57.2006 14.3464 55.7084 14.3464ZM55.7508 9.94507C54.9485 9.94507 54.4344 10.6952 54.4344 11.7442C54.4344 12.773 54.9591 13.5232 55.7402 13.5232C56.5212 13.5232 57.0459 12.7211 57.0459 11.723C57.0459 10.7058 56.5319 9.94507 55.7508 9.94507ZM66.5261 9.23623L64.9628 14.2331H63.9443L63.2968 12.0631C63.1357 11.5323 63.0017 10.9937 62.8951 10.4494H62.8739C62.7923 10.994 62.6375 11.5397 62.4733 12.0631L61.7844 14.2331H60.7553L59.2842 9.23623H60.4257L60.9916 11.6117C61.1252 12.1775 61.2375 12.7116 61.3308 13.2159H61.352C61.4336 12.7953 61.5671 12.2697 61.7632 11.6223L62.4733 9.23729H63.3784L64.0577 11.5715C64.222 12.1373 64.3555 12.6925 64.4594 13.217H64.4891C64.5611 12.7031 64.6745 12.1574 64.8282 11.5715L65.4355 9.23729L66.5261 9.23623ZM72.281 14.2331H71.1703V11.3638C71.1703 10.4801 70.8311 10.0373 70.1624 10.0373C69.5042 10.0373 69.0517 10.6031 69.0517 11.261V14.2331H67.941V10.6645C67.941 10.2227 67.9304 9.74905 67.8996 9.23517H68.8768L68.9287 10.0065H68.9594C69.2583 9.47251 69.8645 9.13345 70.5439 9.13345C71.5931 9.13345 72.282 9.93553 72.282 11.2409L72.281 14.2331ZM75.3439 14.2331H74.2321V6.94336H75.3439V14.2331ZM79.3935 14.3464C77.9341 14.3464 76.9866 13.2562 76.9866 11.776C76.9866 10.2333 77.9532 9.13345 79.4751 9.13345C80.9154 9.13345 81.882 10.1718 81.882 11.6944C81.883 13.2562 80.8847 14.3464 79.3935 14.3464ZM79.4348 9.94507C78.6325 9.94507 78.1185 10.6952 78.1185 11.7442C78.1185 12.773 78.6442 13.5232 79.4232 13.5232C80.2053 13.5232 80.7289 12.7211 80.7289 11.723C80.7299 10.7058 80.217 9.94507 79.4348 9.94507ZM86.2612 14.2331L86.1807 13.6577H86.151C85.8119 14.1208 85.3169 14.3464 84.6895 14.3464C83.7939 14.3464 83.158 13.7192 83.158 12.8758C83.158 11.6425 84.2274 11.0046 86.0789 11.0046V10.9124C86.0789 10.2545 85.7302 9.92494 85.0413 9.92494C84.5485 9.92494 84.1161 10.0489 83.7356 10.2958L83.5099 9.56575C83.972 9.27755 84.5485 9.13345 85.2258 9.13345C86.5315 9.13345 87.1907 9.82216 87.1907 11.2006V13.0411C87.1907 13.5454 87.2129 13.9364 87.2628 14.2341L86.2612 14.2331ZM86.1086 11.7442C84.875 11.7442 84.256 12.043 84.256 12.7518C84.256 13.2763 84.575 13.5327 85.018 13.5327C85.5829 13.5327 86.1086 13.1015 86.1086 12.5155V11.7442ZM92.5842 14.2331L92.5322 13.431H92.5015C92.1825 14.0371 91.6462 14.3464 90.8969 14.3464C89.6919 14.3464 88.7995 13.2869 88.7995 11.7961C88.7995 10.2333 89.7247 9.13239 90.9881 9.13239C91.6568 9.13239 92.1306 9.35808 92.3976 9.81157H92.4199V6.94336H93.5317V12.8864C93.5317 13.3695 93.5433 13.822 93.573 14.2331H92.5842ZM92.4199 11.2928C92.4199 10.5935 91.9568 9.99699 91.2498 9.99699C90.4264 9.99699 89.9229 10.727 89.9229 11.7548C89.9229 12.7624 90.4454 13.4522 91.2276 13.4522C91.926 13.4522 92.4199 12.8451 92.4199 12.1256V11.2928ZM100.581 14.3464C99.1212 14.3464 98.1748 13.2562 98.1748 11.776C98.1748 10.2333 99.1414 9.13345 100.663 9.13345C102.104 9.13345 103.07 10.1718 103.07 11.6944C103.071 13.2562 102.074 14.3464 100.581 14.3464ZM100.622 9.94507C99.8207 9.94507 99.3067 10.6952 99.3067 11.7442C99.3067 12.773 99.8313 13.5232 100.611 13.5232C101.394 13.5232 101.917 12.7211 101.917 11.723C101.919 10.7058 101.405 9.94507 100.622 9.94507ZM109.043 14.2331H107.932V11.3638C107.932 10.4801 107.592 10.0373 106.924 10.0373C106.266 10.0373 105.814 10.6031 105.814 11.261V14.2331H104.702V10.6645C104.702 10.2227 104.692 9.74905 104.661 9.23517H105.638L105.69 10.0065H105.721C106.019 9.47251 106.626 9.13239 107.304 9.13239C108.353 9.13239 109.043 9.93447 109.043 11.2398V14.2331ZM116.516 10.069H115.294V12.4954C115.294 13.1131 115.508 13.4215 115.941 13.4215C116.137 13.4215 116.301 13.4003 116.434 13.3695L116.464 14.2129C116.249 14.2956 115.961 14.3369 115.603 14.3369C114.727 14.3369 114.204 13.8538 114.204 12.5887V10.069H113.475V9.23623H114.204V8.32078L115.294 7.99126V9.23517H116.516V10.069ZM122.396 14.2331H121.287V11.385C121.287 10.4907 120.948 10.0383 120.279 10.0383C119.703 10.0383 119.167 10.4293 119.167 11.2208V14.2331H118.057V6.94336H119.167V9.94507H119.189C119.539 9.40046 120.046 9.13239 120.692 9.13239C121.75 9.13239 122.396 9.95461 122.396 11.261V14.2331ZM128.42 12.0017H125.087C125.108 12.9478 125.735 13.4819 126.662 13.4819C127.155 13.4819 127.608 13.3992 128.009 13.2456L128.182 14.0169C127.709 14.2225 127.153 14.3253 126.505 14.3253C124.942 14.3253 124.017 13.3378 124.017 11.8067C124.017 10.2746 124.964 9.12286 126.38 9.12286C127.657 9.12286 128.458 10.069 128.458 11.4984C128.466 11.6671 128.453 11.836 128.42 12.0017ZM127.402 11.2102C127.402 10.4388 127.013 9.89421 126.303 9.89421C125.665 9.89421 125.16 10.4494 125.088 11.2102H127.402Z" fill="white"/>
</g>
</g>
<defs>
<linearGradient id="paint0_linear_3323_117138" x1="104.881" y1="42.4829" x2="104.881" y2="-110.325" gradientUnits="userSpaceOnUse">
<stop stop-color="#1A1A1A" stop-opacity="0.1"/>
<stop offset="0.123" stop-color="#212121" stop-opacity="0.151"/>
<stop offset="0.308" stop-color="#353535" stop-opacity="0.227"/>
<stop offset="0.532" stop-color="#575757" stop-opacity="0.318"/>
<stop offset="0.783" stop-color="#858585" stop-opacity="0.421"/>
<stop offset="1" stop-color="#B3B3B3" stop-opacity="0.51"/>
</linearGradient>
</defs>
</svg>
