<svg width="141" height="42" viewBox="0 0 141 42" fill="none" xmlns="http://www.w3.org/2000/svg">
<g id="Group 305">
<path id="Vector" d="M135.779 41.7778H5.22295C2.29851 41.7778 0.000732422 39.48 0.000732422 36.5556V5.22222C0.000732422 2.29778 2.29851 0 5.22295 0H135.779C138.703 0 141.001 2.29778 141.001 5.22222V36.5556C141.001 39.48 138.703 41.7778 135.779 41.7778Z" fill="black"/>
<path id="Vector_2" d="M135.779 0.835556C138.181 0.835556 140.165 2.82 140.165 5.22222V36.5556C140.165 38.9578 138.181 40.9422 135.779 40.9422H5.22295C2.82073 40.9422 0.836288 38.9578 0.836288 36.5556V5.22222C0.836288 2.82 2.82073 0.835556 5.22295 0.835556H135.779ZM135.779 0H5.22295C2.29851 0 0.000732422 2.40222 0.000732422 5.22222V36.5556C0.000732422 39.48 2.29851 41.7778 5.22295 41.7778H135.779C138.703 41.7778 141.001 39.48 141.001 36.5556V5.22222C141.001 2.40222 138.703 0 135.779 0Z" fill="#A6A6A6"/>
<path id="Vector_3" d="M49.5076 10.6532C49.5076 11.4888 49.2987 12.2199 48.7765 12.7421C48.1499 13.3688 47.4187 13.6821 46.4787 13.6821C45.5387 13.6821 44.8076 13.3688 44.181 12.7421C43.5543 12.1154 43.241 11.3843 43.241 10.4443C43.241 9.50432 43.5543 8.77321 44.181 8.14654C44.8076 7.51988 45.5387 7.20654 46.4787 7.20654C46.8965 7.20654 47.3143 7.31099 47.7321 7.51988C48.1499 7.72876 48.4632 7.93765 48.6721 8.25099L48.1499 8.77321C47.7321 8.25099 47.2099 8.0421 46.4787 8.0421C45.8521 8.0421 45.2254 8.25099 44.8076 8.77321C44.2854 9.19099 44.0765 9.81765 44.0765 10.5488C44.0765 11.2799 44.2854 11.9065 44.8076 12.3243C45.3299 12.7421 45.8521 13.0554 46.4787 13.0554C47.2099 13.0554 47.7321 12.8465 48.2543 12.3243C48.5676 12.011 48.7765 11.5932 48.7765 11.071H46.4787V10.2354H49.5076V10.6532ZM54.3121 8.0421H51.4921V10.0265H54.1032V10.7577H51.4921V12.7421H54.3121V13.5777H50.6565V7.31099H54.3121V8.0421ZM57.7587 13.5777H56.9232V8.0421H55.1476V7.31099H59.5343V8.0421H57.7587V13.5777ZM62.5632 13.5777V7.31099H63.3987V13.5777H62.5632ZM66.9499 13.5777H66.1143V8.0421H64.3387V7.31099H68.621V8.0421H66.8454V13.5777H66.9499ZM76.8721 12.7421C76.2454 13.3688 75.5143 13.6821 74.5743 13.6821C73.6343 13.6821 72.9032 13.3688 72.2765 12.7421C71.6498 12.1154 71.3365 11.3843 71.3365 10.4443C71.3365 9.50432 71.6498 8.77321 72.2765 8.14654C72.9032 7.51988 73.6343 7.20654 74.5743 7.20654C75.5143 7.20654 76.2454 7.51988 76.8721 8.14654C77.4987 8.77321 77.8121 9.50432 77.8121 10.4443C77.8121 11.3843 77.4987 12.1154 76.8721 12.7421ZM72.9032 12.2199C73.321 12.6377 73.9476 12.951 74.5743 12.951C75.201 12.951 75.8276 12.7421 76.2454 12.2199C76.6632 11.8021 76.9765 11.1754 76.9765 10.4443C76.9765 9.71321 76.7676 9.08654 76.2454 8.66877C75.8276 8.25099 75.201 7.93765 74.5743 7.93765C73.9476 7.93765 73.321 8.14654 72.9032 8.66877C72.4854 9.08654 72.1721 9.71321 72.1721 10.4443C72.1721 11.1754 72.381 11.8021 72.9032 12.2199ZM78.961 13.5777V7.31099H79.901L82.9299 12.2199V7.31099H83.7654V13.5777H82.9299L79.6921 8.45988V13.5777H78.961Z" fill="white" stroke="white" stroke-width="0.208889" stroke-miterlimit="10"/>
<path id="Vector_4" d="M71.1275 22.7692C68.6208 22.7692 66.6364 24.6492 66.6364 27.2604C66.6364 29.767 68.6208 31.7515 71.1275 31.7515C73.6342 31.7515 75.6186 29.8715 75.6186 27.2604C75.6186 24.5448 73.6342 22.7692 71.1275 22.7692ZM71.1275 29.8715C69.7697 29.8715 68.6208 28.7226 68.6208 27.1559C68.6208 25.5892 69.7697 24.4404 71.1275 24.4404C72.4853 24.4404 73.6342 25.4848 73.6342 27.1559C73.6342 28.7226 72.4853 29.8715 71.1275 29.8715ZM61.4142 22.7692C58.9075 22.7692 56.923 24.6492 56.923 27.2604C56.923 29.767 58.9075 31.7515 61.4142 31.7515C63.9208 31.7515 65.9053 29.8715 65.9053 27.2604C65.9053 24.5448 63.9208 22.7692 61.4142 22.7692ZM61.4142 29.8715C60.0564 29.8715 58.9075 28.7226 58.9075 27.1559C58.9075 25.5892 60.0564 24.4404 61.4142 24.4404C62.7719 24.4404 63.9208 25.4848 63.9208 27.1559C63.9208 28.7226 62.7719 29.8715 61.4142 29.8715ZM49.8208 24.127V26.007H54.3119C54.2075 27.0515 53.7897 27.887 53.2675 28.4092C52.6408 29.0359 51.5964 29.767 49.8208 29.767C47.0008 29.767 44.9119 27.5737 44.9119 24.7537C44.9119 21.9337 47.1053 19.7404 49.8208 19.7404C51.283 19.7404 52.4319 20.367 53.2675 21.0981L54.6253 19.7404C53.4764 18.6959 52.0142 17.8604 49.9253 17.8604C46.1653 17.8604 42.9275 20.9937 42.9275 24.7537C42.9275 28.5137 46.1653 31.647 49.9253 31.647C52.0142 31.647 53.4764 31.0204 54.7297 29.6626C55.983 28.4092 56.4008 26.6337 56.4008 25.2759C56.4008 24.8581 56.4008 24.4404 56.2964 24.127H49.8208ZM97.2386 25.5892C96.8208 24.5448 95.7764 22.7692 93.4786 22.7692C91.1808 22.7692 89.3008 24.5448 89.3008 27.2604C89.3008 29.767 91.1808 31.7515 93.6875 31.7515C95.6719 31.7515 96.9253 30.4981 97.343 29.767L95.8808 28.7226C95.3586 29.4537 94.7319 29.9759 93.6875 29.9759C92.643 29.9759 92.0164 29.5581 91.4942 28.6181L97.4475 26.1115L97.2386 25.5892ZM91.1808 27.0515C91.1808 25.3804 92.5386 24.4404 93.4786 24.4404C94.2097 24.4404 94.9408 24.8581 95.1497 25.3804L91.1808 27.0515ZM86.2719 31.3337H88.2564V18.2781H86.2719V31.3337ZM83.1386 23.7092C82.6164 23.187 81.7808 22.6648 80.7364 22.6648C78.543 22.6648 76.4542 24.6492 76.4542 27.1559C76.4542 29.6626 78.4386 31.5426 80.7364 31.5426C81.7808 31.5426 82.6164 31.0204 83.0342 30.4981H83.1386V31.1248C83.1386 32.7959 82.1986 33.7359 80.7364 33.7359C79.5875 33.7359 78.7519 32.9004 78.543 32.1692L76.8719 32.9004C77.3942 34.0492 78.6475 35.5115 80.8408 35.5115C83.1386 35.5115 85.0186 34.1537 85.0186 30.9159V22.9781H83.1386V23.7092ZM80.8408 29.8715C79.483 29.8715 78.3342 28.7226 78.3342 27.1559C78.3342 25.5892 79.483 24.4404 80.8408 24.4404C82.1986 24.4404 83.243 25.5892 83.243 27.1559C83.243 28.7226 82.1986 29.8715 80.8408 29.8715ZM106.325 18.2781H101.625V31.3337H103.61V26.4248H106.325C108.519 26.4248 110.607 24.8581 110.607 22.3515C110.607 19.8448 108.519 18.2781 106.325 18.2781ZM106.43 24.5448H103.61V20.0537H106.43C107.892 20.0537 108.727 21.307 108.727 22.247C108.623 23.3959 107.787 24.5448 106.43 24.5448ZM118.441 22.6648C116.979 22.6648 115.516 23.2915 114.994 24.6492L116.77 25.3804C117.187 24.6492 117.814 24.4404 118.545 24.4404C119.59 24.4404 120.53 25.067 120.634 26.1115V26.2159C120.321 26.007 119.485 25.6937 118.65 25.6937C116.77 25.6937 114.89 26.7381 114.89 28.6181C114.89 30.3937 116.456 31.5426 118.127 31.5426C119.485 31.5426 120.112 30.9159 120.634 30.2892H120.739V31.3337H122.619V26.3204C122.41 24.0226 120.634 22.6648 118.441 22.6648ZM118.232 29.8715C117.605 29.8715 116.665 29.5581 116.665 28.7226C116.665 27.6781 117.814 27.3648 118.754 27.3648C119.59 27.3648 120.007 27.5737 120.53 27.7826C120.321 29.0359 119.276 29.8715 118.232 29.8715ZM129.199 22.9781L127.005 28.6181H126.901L124.603 22.9781H122.514L125.961 30.9159L123.976 35.3026H125.961L131.287 22.9781H129.199ZM111.652 31.3337H113.636V18.2781H111.652V31.3337Z" fill="white"/>
<g id="Group">
<path id="Vector_5" d="M10.8628 7.8335C10.5495 8.14683 10.4451 8.66905 10.4451 9.29572V32.3779C10.4451 33.0046 10.654 33.5268 10.9673 33.8402L11.0717 33.9446L24.0228 20.9935V20.7846L10.8628 7.8335Z" fill="url(#paint0_linear_3323_117148)"/>
<path id="Vector_6" d="M28.1999 25.3797L23.9177 21.0975V20.7842L28.1999 16.502L28.3044 16.6064L33.4222 19.5308C34.8844 20.3664 34.8844 21.7242 33.4222 22.5597L28.1999 25.3797Z" fill="url(#paint1_linear_3323_117148)"/>
<path id="Vector_7" d="M28.3053 25.2758L23.9186 20.8892L10.863 33.9447C11.3853 34.4669 12.1164 34.4669 13.0564 34.0492L28.3053 25.2758Z" fill="url(#paint2_linear_3323_117148)"/>
<path id="Vector_8" d="M28.3053 16.5025L13.0564 7.83357C12.1164 7.31135 11.3853 7.41579 10.863 7.93801L23.9186 20.8891L28.3053 16.5025Z" fill="url(#paint3_linear_3323_117148)"/>
<path id="Vector_9" opacity="0.2" d="M28.2008 25.1709L13.0564 33.7353C12.2208 34.2576 11.4897 34.1531 10.9675 33.7353L10.863 33.8398L10.9675 33.9442C11.4897 34.362 12.2208 34.4665 13.0564 33.9442L28.2008 25.1709Z" fill="black"/>
<path id="Vector_10" opacity="0.12" d="M10.8628 33.7358C10.5495 33.4225 10.4451 32.9003 10.4451 32.2736V32.378C10.4451 33.0047 10.654 33.5269 10.9673 33.8403V33.7358H10.8628ZM33.4228 22.2469L28.2006 25.1714L28.3051 25.2758L33.4228 22.3514C34.154 21.9336 34.4673 21.4114 34.4673 20.8892C34.4673 21.4114 34.0495 21.8292 33.4228 22.2469Z" fill="black"/>
<path id="Vector_11" opacity="0.25" d="M13.0562 7.93778L33.4228 19.5311C34.0495 19.9489 34.4673 20.3667 34.4673 20.8889C34.4673 20.3667 34.154 19.8444 33.4228 19.4267L13.0562 7.83333C11.594 6.99778 10.4451 7.62444 10.4451 9.29556V9.4C10.4451 7.83333 11.594 7.10222 13.0562 7.93778Z" fill="white"/>
</g>
</g>
<defs>
<linearGradient id="paint0_linear_3323_117148" x1="22.7695" y1="9.09727" x2="5.2406" y2="26.6251" gradientUnits="userSpaceOnUse">
<stop stop-color="#00A0FF"/>
<stop offset="0.007" stop-color="#00A1FF"/>
<stop offset="0.26" stop-color="#00BEFF"/>
<stop offset="0.512" stop-color="#00D2FF"/>
<stop offset="0.76" stop-color="#00DFFF"/>
<stop offset="1" stop-color="#00E3FF"/>
</linearGradient>
<linearGradient id="paint1_linear_3323_117148" x1="35.3377" y1="20.8897" x2="10.0653" y2="20.8897" gradientUnits="userSpaceOnUse">
<stop stop-color="#FFE000"/>
<stop offset="0.409" stop-color="#FFBD00"/>
<stop offset="0.775" stop-color="#FFA500"/>
<stop offset="1" stop-color="#FF9C00"/>
</linearGradient>
<linearGradient id="paint2_linear_3323_117148" x1="25.9312" y1="23.2872" x2="2.16177" y2="47.0567" gradientUnits="userSpaceOnUse">
<stop stop-color="#FF3A44"/>
<stop offset="1" stop-color="#C31162"/>
</linearGradient>
<linearGradient id="paint3_linear_3323_117148" x1="7.62213" y1="0.184059" x2="18.2368" y2="10.7987" gradientUnits="userSpaceOnUse">
<stop stop-color="#32A071"/>
<stop offset="0.069" stop-color="#2DA771"/>
<stop offset="0.476" stop-color="#15CF74"/>
<stop offset="0.801" stop-color="#06E775"/>
<stop offset="1" stop-color="#00F076"/>
</linearGradient>
</defs>
</svg>
