<svg width="151" height="38" viewBox="0 0 151 38" fill="none" xmlns="http://www.w3.org/2000/svg">
<path d="M0.161377 0.569336V17.8605H5.00166V11.2911H10.0171V7.31384H5.00166V4.7186H10.5361V0.569336H0.161377Z" fill="#2E2E2E"/>
<path d="M11.3428 11.8849C11.3428 8.52362 13.5315 5.48438 18.4813 5.48438C23.431 5.48438 25.6229 8.52362 25.6229 11.8849C25.6229 15.2931 23.4341 18.3074 18.4844 18.3074C13.5347 18.3074 11.3459 15.2931 11.3459 11.8849H11.3428ZM21.1547 11.8849C21.1547 9.93068 20.2166 8.59867 18.4844 8.59867C16.7521 8.59867 15.8172 9.93068 15.8172 11.8849C15.8172 13.8392 16.7553 15.1931 18.4844 15.1931C20.2135 15.1931 21.1547 13.8611 21.1547 11.8849Z" fill="#2E2E2E"/>
<path d="M27.7461 5.9316H31.8954V7.495C32.0204 7.32615 32.1455 7.18232 32.2643 7.02598C32.648 6.6058 33.1137 6.26864 33.6326 6.03525C34.1515 5.80187 34.7127 5.6772 35.2817 5.66895C35.6542 5.68127 36.0258 5.71363 36.3948 5.76588V9.57119C36.0437 9.42145 35.6629 9.35407 35.2817 9.3742C32.1174 9.3742 32.0705 12.3884 32.0705 12.7824V17.8697H27.7461V5.9316Z" fill="#2E2E2E"/>
<path d="M50.3497 14.2298C48.9677 18.2947 44.9622 18.2947 43.9272 18.2947C40.2189 18.2947 37.3047 16.0465 37.3047 11.8722C37.3047 8.09194 39.8061 5.47168 43.871 5.47168C49.5524 5.47168 50.5404 10.1619 50.4372 12.8353H41.357C41.307 14.3424 42.195 15.6994 43.9272 15.6994C45.1123 15.6994 45.9784 15.1835 46.2004 14.2173L50.3497 14.2298ZM46.2849 10.4996C46.2129 9.24885 45.4219 8.07943 43.8647 8.07943C42.4045 8.07943 41.5196 9.21446 41.4446 10.4996H46.2849Z" fill="#2E2E2E"/>
<path d="M56.2531 11.4882L51.8818 5.92871H57.1661L59.0703 9.11492L61.0214 5.92871H66.0618L61.5655 11.5351L66.2338 17.8606H61.2184L58.7983 13.9583L56.2531 17.8606H51.0188L56.2531 11.4882Z" fill="#2E2E2E"/>
<path d="M81.0705 4.45256C80.4538 3.82661 79.7174 3.33125 78.9051 2.99604C78.0929 2.66082 77.2214 2.49261 76.3428 2.50144C72.5406 2.50144 70.061 5.31556 70.061 9.18029C70.061 12.9106 72.6406 15.709 76.3428 15.709C77.1651 15.709 79.0943 15.5621 81.0705 13.686V16.8878C79.7008 17.7474 78.1253 18.2229 76.5088 18.2645C74.8923 18.3061 73.2944 17.9123 71.8823 17.1243C70.4703 16.3363 69.2961 15.1831 68.4828 13.7855C67.6695 12.3879 67.2469 10.7973 67.2594 9.18029C67.2324 7.9058 67.4684 6.63943 67.9525 5.46019C68.4367 4.28094 69.1587 3.21414 70.0735 2.32634C71.9027 0.57533 74.0039 0 76.4053 0C78.6566 0 80.0074 0.57533 81.0955 1.30075L81.0705 4.45256Z" fill="#2E2E2E"/>
<path d="M92.7179 5.96289V12.8012C92.7179 13.5266 92.7179 14.3083 93.2307 14.9524C93.4625 15.2076 93.7452 15.4116 94.0604 15.5511C94.3757 15.6906 94.7167 15.7627 95.0615 15.7627C95.4062 15.7627 95.7472 15.6906 96.0625 15.5511C96.3778 15.4116 96.6604 15.2076 96.8922 14.9524C97.405 14.3083 97.405 13.5266 97.405 12.8012V5.96289H100.15V12.8419C100.15 14.2395 100.069 15.534 98.8996 16.7472C97.6489 18.0386 95.8541 18.2262 95.0224 18.2262C94.2938 18.2262 92.5209 18.0386 91.2515 16.7472C90.0633 15.534 90.0007 14.2458 90.0007 12.8419V5.96289H92.7179Z" fill="#2E2E2E"/>
<path d="M86.6362 0.5625H83.8909V17.8568H86.6362V0.5625Z" fill="#2E2E2E"/>
<path d="M109.815 5.6412C109.123 5.6155 108.435 5.75896 107.81 6.05916C107.186 6.35937 106.644 6.80727 106.232 7.36407V0.566406H103.48V17.8607H106.226V16.61C106.66 17.1345 107.209 17.5527 107.83 17.8329C108.451 18.113 109.128 18.2477 109.809 18.2266C112.798 18.2266 115.597 15.8565 115.597 11.8979C115.597 8.69609 113.552 5.64433 109.809 5.64433L109.815 5.6412ZM109.431 15.7658C107.276 15.7658 106.066 14.0961 106.066 12.0136C106.066 9.3746 107.708 8.13326 109.431 8.13326C111.422 8.13326 112.742 9.83111 112.742 11.9855C112.742 14.0335 111.532 15.7814 109.431 15.7814" fill="#2E2E2E"/>
<path d="M150.836 0.356445L137.344 13.8517H122.282L113.192 22.9413V28.5883L123.92 17.8603H138.979L150.836 6.00657V0.356445ZM125.055 20.4993L113.198 32.3374V38L126.694 24.5047H141.749L150.845 15.412V9.76811L140.114 20.4993H125.055Z" fill="#FF6633"/>
</svg>
