<svg width="64" height="56" viewBox="0 0 64 56" fill="none" xmlns="http://www.w3.org/2000/svg">
<g clip-path="url(#clip0_3268_118781)">
<path d="M25 6.89444C15.0006 6.89444 6.89444 15.0006 6.89444 25C6.89444 34.9994 15.0006 43.1056 25 43.1056C34.9994 43.1056 43.1056 34.9994 43.1056 25C43.0933 15.0057 34.9943 6.90669 25 6.89444ZM25 0C38.8008 0.0153087 49.9847 11.1992 50 25C50 38.8071 38.8071 50 25 50C11.1929 50 0 38.8071 0 25C0 11.1929 11.1929 0 25 0ZM25 41.3389C18.3833 41.3389 12.4184 37.3522 9.88785 31.2385C7.3573 25.1248 8.75967 18.0887 13.4408 13.4123C18.1219 8.73597 25.1594 7.34078 31.2706 9.87756C37.3817 12.4143 41.3623 18.3833 41.3556 25C41.3464 34.0291 34.0291 41.3464 25 41.3556V41.3389ZM25 48.2444C37.8312 48.2291 48.2291 37.8312 48.2444 25C48.2444 12.1624 37.8376 1.75556 25 1.75556C12.1624 1.75556 1.75556 12.1624 1.75556 25C1.75556 37.8376 12.1624 48.2444 25 48.2444ZM29.2944 24.1944C30.2591 23.4438 30.8146 22.2832 30.7944 21.0611C30.9015 19.3609 29.9109 17.7821 28.3333 17.1389V14.6611C28.3333 14.1763 27.9403 13.7833 27.4556 13.7833C26.9708 13.7833 26.5778 14.1763 26.5778 14.6611V16.7444H23.4167V14.6611C23.4167 14.1763 23.0237 13.7833 22.5389 13.7833C22.0541 13.7833 21.6611 14.1763 21.6611 14.6611V16.7389H19.5833C19.0986 16.7389 18.7056 17.1319 18.7056 17.6167C18.7056 18.1014 19.0986 18.4944 19.5833 18.4944H19.7056V24.5056V31.5056H19.6C19.1152 31.5056 18.7222 31.8986 18.7222 32.3833C18.7222 32.8681 19.1152 33.2611 19.6 33.2611H21.6667V35.3389C21.6667 35.8237 22.0597 36.2167 22.5444 36.2167C23.0292 36.2167 23.4222 35.8237 23.4222 35.3389V33.2611H26.5944V35.3389C26.5944 35.8237 26.9874 36.2167 27.4722 36.2167C27.957 36.2167 28.35 35.8237 28.35 35.3389V33.0167C30.2333 32.5333 32.2889 31.25 32.2889 28.45C32.2778 26.1111 30.8556 24.8389 29.2944 24.1944ZM26.4778 18.4944C27.1684 18.4622 27.8404 18.7232 28.3282 19.2131C28.816 19.703 29.0741 20.3762 29.0389 21.0667C29.0389 23.0722 26.7889 23.5667 26.4056 23.6333H21.45V18.4944H26.4778ZM26.4778 31.5111H21.4444V25.4H26.4722C26.6389 25.4 30.5222 25.4556 30.5222 28.4611C30.5222 31.4667 26.6667 31.5056 26.4778 31.5056V31.5111Z" fill="#222222"/>
</g>
<circle cx="40" cy="32" r="24" fill="#FF6633" fill-opacity="0.2"/>
<defs>
<clipPath id="clip0_3268_118781">
<rect width="50" height="50" fill="white"/>
</clipPath>
</defs>
</svg>
