<svg width="47" height="47" viewBox="0 0 47 47" fill="none" xmlns="http://www.w3.org/2000/svg">
<g id="circum:dollar">
<path id="Vector" d="M23.5 42.9541C19.6523 42.9541 15.8911 41.8131 12.6919 39.6755C9.49267 37.5378 6.99919 34.4995 5.52676 30.9447C4.05433 27.39 3.66907 23.4784 4.41971 19.7047C5.17035 15.931 7.02317 12.4646 9.74388 9.74388C12.4646 7.02317 15.931 5.17035 19.7047 4.41971C23.4784 3.66907 27.39 4.05433 30.9447 5.52676C34.4995 6.99919 37.5378 9.49267 39.6755 12.6919C41.8131 15.8911 42.9541 19.6523 42.9541 23.5C42.9484 28.6578 40.8969 33.6027 37.2498 37.2498C33.6027 40.8969 28.6578 42.9484 23.5 42.9541ZM23.5 6.00424C20.0397 6.00424 16.657 7.03035 13.7799 8.95281C10.9027 10.8753 8.66024 13.6077 7.33603 16.8047C6.01181 20.0016 5.66534 23.5194 6.34042 26.9132C7.01549 30.3071 8.6818 33.4245 11.1286 35.8713C13.5755 38.3182 16.6929 39.9845 20.0867 40.6596C23.4806 41.3346 26.9984 40.9882 30.1953 39.664C33.3923 38.3397 36.1247 36.0973 38.0472 33.2201C39.9696 30.3429 40.9957 26.9603 40.9957 23.5C40.9906 18.8614 39.1456 14.4143 35.8656 11.1344C32.5857 7.85438 28.1386 6.00942 23.5 6.00424Z" fill="#FF6633"/>
<path id="Vector_2" d="M28.3962 26.4372C28.3931 27.475 27.9794 28.4695 27.2456 29.2033C26.5117 29.9372 25.5173 30.3508 24.4795 30.3539V32.3318C24.4795 32.5915 24.3763 32.8406 24.1927 33.0242C24.0091 33.2078 23.76 33.311 23.5003 33.311C23.2406 33.311 22.9916 33.2078 22.8079 33.0242C22.6243 32.8406 22.5212 32.5915 22.5212 32.3318V30.3539H20.0732C19.8136 30.3539 19.5645 30.2507 19.3809 30.0671C19.1972 29.8835 19.0941 29.6344 19.0941 29.3747C19.0941 29.115 19.1972 28.866 19.3809 28.6824C19.5645 28.4987 19.8136 28.3956 20.0732 28.3956H24.4795C24.9989 28.3956 25.497 28.1892 25.8642 27.822C26.2315 27.4547 26.4378 26.9566 26.4378 26.4372C26.4378 25.9178 26.2315 25.4197 25.8642 25.0525C25.497 24.6852 24.9989 24.4789 24.4795 24.4789H22.5212C21.4824 24.4789 20.4862 24.0662 19.7517 23.3317C19.0171 22.5972 18.6045 21.601 18.6045 20.5622C18.6045 19.5235 19.0171 18.5272 19.7517 17.7927C20.4862 17.0582 21.4824 16.6456 22.5212 16.6456V14.6676C22.5212 14.408 22.6243 14.1589 22.8079 13.9753C22.9916 13.7916 23.2406 13.6885 23.5003 13.6885C23.76 13.6885 24.0091 13.7916 24.1927 13.9753C24.3763 14.1589 24.4795 14.408 24.4795 14.6676V16.6456H26.9274C27.1871 16.6456 27.4362 16.7487 27.6198 16.9324C27.8034 17.116 27.9066 17.365 27.9066 17.6247C27.9066 17.8844 27.8034 18.1335 27.6198 18.3171C27.4362 18.5007 27.1871 18.6039 26.9274 18.6039H22.5212C22.0018 18.6039 21.5037 18.8102 21.1364 19.1775C20.7691 19.5447 20.5628 20.0428 20.5628 20.5622C20.5628 21.0816 20.7691 21.5797 21.1364 21.947C21.5037 22.3142 22.0018 22.5206 22.5212 22.5206H24.4795C25.5173 22.5237 26.5117 22.9373 27.2456 23.6712C27.9794 24.405 28.3931 25.3994 28.3962 26.4372Z" fill="#FF6633"/>
</g>
</svg>
