<svg width="38" height="38" viewBox="0 0 38 38" fill="none" xmlns="http://www.w3.org/2000/svg">
<g id="Group 320">
<g id="Group 316">
<g id="Group 313">
<g id="Group 310">
<circle id="Ellipse 30" cx="19" cy="19" r="18.25" stroke="#FF6633" stroke-width="1.5"/>
</g>
</g>
</g>
<path id="Vector" d="M23.7892 18.6413C24.4848 18.1186 25.0014 17.3923 25.2677 16.5626C25.5339 15.733 25.5368 14.8409 25.2758 14.0096C25.0148 13.1782 24.5028 12.4486 23.8106 11.9215C23.1183 11.3943 22.2799 11.0957 21.4112 11.0667V8.76667C21.4112 8.56333 21.3306 8.36833 21.1872 8.22455C21.0438 8.08077 20.8493 8 20.6465 8C20.4437 8 20.2492 8.08077 20.1058 8.22455C19.9624 8.36833 19.8819 8.56333 19.8819 8.76667V11.0667H17.5879V8.76667C17.5879 8.56333 17.5073 8.36833 17.3639 8.22455C17.2205 8.08077 17.0261 8 16.8233 8C16.6205 8 16.426 8.08077 16.2826 8.22455C16.1392 8.36833 16.0586 8.56333 16.0586 8.76667V11.0667H13.7647C13.5619 11.0667 13.3674 11.1474 13.224 11.2912C13.0806 11.435 13 11.63 13 11.8333V27.1667C13 27.37 13.0806 27.565 13.224 27.7088C13.3674 27.8526 13.5619 27.9333 13.7647 27.9333H16.0586V30.2333C16.0586 30.4367 16.1392 30.6317 16.2826 30.7754C16.426 30.9192 16.6205 31 16.8233 31C17.0261 31 17.2205 30.9192 17.3639 30.7754C17.5073 30.6317 17.5879 30.4367 17.5879 30.2333V27.9333H19.8819V30.2333C19.8819 30.4367 19.9624 30.6317 20.1058 30.7754C20.2492 30.9192 20.4437 31 20.6465 31C20.8493 31 21.0438 30.9192 21.1872 30.7754C21.3306 30.6317 21.4112 30.4367 21.4112 30.2333V27.9333H21.4723C22.6994 27.9032 23.8645 27.3869 24.7129 26.4975C25.5612 25.6082 26.0237 24.4181 25.9991 23.1877V22.7123C26.0042 21.9017 25.8042 21.1031 25.4177 20.3911C25.0312 19.6791 24.4709 19.0771 23.7892 18.6413ZM14.5293 12.6H21.1741C21.7446 12.5909 22.3038 12.7603 22.7738 13.0845C23.2439 13.4088 23.6015 13.8719 23.7969 14.4093C23.9344 14.8147 23.9734 15.2472 23.9107 15.6708C23.848 16.0943 23.6854 16.4968 23.4363 16.8447C23.1873 17.1926 22.8591 17.4759 22.4789 17.671C22.0988 17.8661 21.6777 17.9675 21.2506 17.9667H14.5293V12.6ZM24.4698 23.1877C24.4925 24.0135 24.1884 24.8148 23.6239 25.4166C23.0595 26.0184 22.2805 26.372 21.457 26.4H14.5293V19.5H21.457C22.2805 19.528 23.0595 19.8816 23.6239 20.4834C24.1884 21.0852 24.4925 21.8865 24.4698 22.7123V23.1877Z" fill="#FF6633"/>
</g>
</svg>
