<svg viewBox="0 0 64 60" fill="none" xmlns="http://www.w3.org/2000/svg">
<circle cx="40" cy="36" r="24" fill="#FF6633" fill-opacity="0.2"/>
<path d="M25.2783 50.6281C23.5525 50.6235 21.8319 50.4373 20.145 50.0725C18.1863 49.5727 16.2541 48.9738 14.3561 48.2781C13.9839 48.0948 13.0894 47.5947 12.2617 47.0781C9.71149 45.5947 7.44179 43.6748 5.55611 41.4059C4.01722 39.4448 1.66722 35.5836 1.48945 34.4725C1.445 34.3225 1.395 34.1392 1.33389 33.917C1.22278 33.4948 1.06722 32.9114 0.87278 32.3225C0.056113 29.667 -0.216109 25.6725 0.178335 22.1336C0.556113 18.2225 2.66722 13.167 5.05611 10.3781L5.43945 9.91142C5.72022 9.59034 5.9765 9.24864 6.20611 8.88919C6.84576 8.11864 7.55833 7.41165 8.33389 6.77808C8.46167 6.6503 8.77833 6.41142 9.08945 6.17808C9.31167 6.01142 9.545 5.83364 9.745 5.67253L10.0617 5.41697C10.4528 5.07638 10.8708 4.76797 11.3117 4.49475C12.8031 3.55704 14.3739 2.7521 16.0061 2.08919C18.8458 1.0145 21.8587 0.470298 24.895 0.483638C27.4006 0.483638 30.0006 0.772527 31.1117 1.17253C31.3561 1.23364 31.7172 1.34475 32.1117 1.47253L33.1506 1.78919C34.8336 2.34262 36.4377 3.112 37.9228 4.07808L38.3061 4.3003C38.9368 4.64561 39.542 5.03549 40.1172 5.46697L40.8783 6.11142C41.295 6.46697 41.7117 6.81697 41.9894 7.06142C43.7432 8.78976 45.2787 10.7264 46.5617 12.8281C46.9617 13.5336 47.4728 14.4447 47.6728 14.8392C48.1561 15.617 49.2561 19.0836 49.5672 20.6225C49.8783 22.1614 50.2783 26.517 49.6672 29.8003C48.6143 35.9837 45.2624 41.5404 40.2839 45.3559C38.8945 46.4016 37.4209 47.3307 35.8783 48.1336C34.0321 49.0088 32.0943 49.6759 30.1006 50.1225L29.8728 50.1559C28.3569 50.4391 26.8202 50.5971 25.2783 50.6281ZM25.4561 48.8503L25.7617 48.8225C26.939 48.7149 28.0941 48.4341 29.1894 47.9892C31.6672 46.6948 34.3117 43.9336 35.7728 41.1114C36.0346 40.6467 36.245 40.1549 36.4006 39.6448L36.5006 39.2892H25.5561L25.4561 48.8503ZM13.4672 40.4059C13.6785 40.6727 13.8506 40.9682 13.9783 41.2836C15.7783 44.8836 20.0394 48.5059 22.4283 48.5059H22.6339H23.695V39.2836L13.0728 39.5003L13.1561 39.8392C13.1834 40.061 13.2948 40.2638 13.4672 40.4059ZM6.045 39.4003L6.46167 39.8559C7.87177 41.427 9.36659 42.9199 10.9394 44.3281C12.3205 45.3576 13.811 46.2314 15.3839 46.9336L16.3006 47.3392L15.745 46.517C15.745 46.4836 13.4172 43.2225 12.8506 42.3392C12.2839 41.4559 11.2061 39.4836 11.195 39.4448L11.1117 39.317L6.045 39.4003ZM38.4172 39.3225C38.4172 39.3225 37.8006 40.3503 37.3061 41.3614C36.6673 42.5999 35.8942 43.7643 35.0006 44.8336C34.1783 45.8559 33.5728 46.667 33.5728 46.667L33.295 47.0392L33.7561 47.1114C33.8227 47.1162 33.8895 47.1162 33.9561 47.1114C34.4887 47.1019 35.0081 46.9441 35.4561 46.6559L35.845 46.417C36.2894 46.1448 36.8506 45.8059 37.1506 45.6559C39.095 44.6336 43.4061 39.8392 43.5894 39.6392L44.0061 39.1781H38.5006L38.4172 39.3225ZM17.2617 26.167C13.7672 26.167 10.7228 26.267 10.695 26.267H10.5117L10.445 26.4336C10.445 26.4892 10.2228 27.0559 10.445 28.9892C10.745 32.6114 12.4617 37.3836 12.4783 37.4336L12.5394 37.6114H12.7283C12.7283 37.6114 15.3894 37.7114 18.1894 37.7114H23.7117L23.8894 26.167H17.2617ZM6.495 26.0781C4.68945 26.0781 2.05056 26.167 2.01722 26.167H1.73389V26.4503C1.73389 26.7059 2.16167 32.8003 3.68389 35.6448C3.99762 36.2579 4.35405 36.8482 4.75056 37.4114L4.82833 37.517H4.95611C4.95611 37.517 6.42833 37.6059 7.56167 37.6059C9.17833 37.6059 10.095 37.5114 10.2783 37.3225C10.4617 37.1336 10.2783 36.4392 10.1283 36.0948C9.46387 33.582 9.00129 31.0201 8.745 28.4336C8.70983 27.7145 8.59809 27.0013 8.41167 26.3059V26.267L8.37833 26.2336C8.27278 26.1503 8.20056 26.0781 6.48945 26.0781H6.495ZM37.4894 26.0392C34.1172 26.0392 26.0172 26.167 25.9339 26.167H25.6672L25.4561 37.517H37.2228L37.495 36.8392C38.4394 35.4448 40.0006 26.7114 39.1117 26.1114H39.0783H39.045C38.5301 26.0368 38.0091 26.0126 37.4894 26.0392ZM41.3339 25.9725V26.217C41.3339 26.2614 40.8839 30.8003 40.645 32.167C40.4061 33.5336 39.4394 37.0336 39.4283 37.067L39.3339 37.417H42.3228C44.7228 37.417 45.3283 37.0281 45.4228 36.9503L45.4617 36.9225V36.8836C46.2997 35.4949 46.9852 34.0197 47.5061 32.4836C48.1159 30.4147 48.4227 28.2683 48.4172 26.1114V25.8448L41.3339 25.9725ZM7.57278 13.7503C5.35056 13.7503 4.68945 14.0503 4.62278 14.0836L4.55056 14.117L4.51167 14.1836C3.82689 15.3272 3.24676 16.5302 2.77834 17.7781C2.48389 18.5725 2.17278 19.5948 2.06167 20.0003C1.65056 21.2281 1.845 24.0059 1.85056 24.1225V24.3836L8.48945 24.2725L8.53945 24.0614C8.53945 24.0225 8.745 23.1336 8.845 22.4281C8.945 20.6281 10.2394 14.8392 10.2561 14.7781C10.2759 14.6132 10.2209 14.4481 10.1061 14.3281C9.77278 13.9559 8.91722 13.7559 7.57278 13.7559V13.7503ZM17.9672 13.7503C15.0672 13.7503 12.4117 13.8503 12.4117 13.8503H12.2228L12.1506 13.9947C11.5921 15.1759 11.178 16.4201 10.9172 17.7003C10.5561 19.8225 10.2228 23.8614 10.2228 23.8892V24.1392L10.4672 24.1836C10.5117 24.1836 11.6617 24.3892 17.0783 24.3892H23.795V13.9947L23.5561 13.9614C21.6989 13.7822 19.8326 13.7135 17.9672 13.7559V13.7503ZM25.5561 24.1892H25.8228C25.8783 24.1892 31.5672 24.367 35.4172 24.367C38.9561 24.367 39.0561 24.2336 39.1728 24.0781C39.7283 23.4003 38.6172 16.8559 37.9006 14.8336L37.5394 13.7225H25.5561V24.1892ZM39.2061 13.767L39.295 14.1003C39.295 14.1392 40.3061 17.8725 40.5172 19.1003C40.7283 20.3281 41.0006 23.817 41.0061 23.8559V24.1059L48.6172 24.2225L48.5839 23.8892C48.5839 23.8892 48.5172 23.4725 48.3172 21.9725C47.9117 19.1336 45.3728 13.9336 45.2617 13.7114L45.1839 13.5503L39.2061 13.767ZM15.1839 4.1503C14.595 4.1503 11.8061 5.85031 10.6228 6.85586C9.195 7.99475 5.91167 11.167 6.095 11.8559C6.17833 12.117 6.41167 12.2003 7.53389 12.2003C8.81722 12.2003 10.7061 12.067 10.7228 12.067H10.8561L10.9339 11.9614C11.3887 11.3034 11.8006 10.6168 12.1672 9.90586C12.8021 8.68781 13.5341 7.52293 14.3561 6.42253C15.7839 4.58364 15.5783 4.37808 15.4672 4.23919L15.3839 4.15586L15.1839 4.1503ZM26.6172 2.11697C26.5031 2.11585 26.3892 2.12891 26.2783 2.15586C26.0283 2.23919 25.7672 2.32253 25.6672 11.6003V11.8336L25.895 11.8781C27.6194 12.0694 29.3553 12.1381 31.0894 12.0836C31.645 12.0836 32.2006 12.1114 32.7117 12.1114C34.7394 12.1114 36.245 11.9836 36.2617 11.9836L36.6506 11.9503L36.4894 11.5947C35.8059 10.0645 34.982 8.60079 34.0283 7.22253C32.7218 5.45967 31.0309 4.01762 29.0839 3.00586C27.8728 2.37808 27.1339 2.11697 26.6172 2.11697ZM32.8561 3.72808C34.4337 4.99287 35.7893 6.51185 36.8672 8.22253C37.4561 9.30586 38.7006 11.9059 38.7117 11.9336L38.7894 12.0947L44.1561 11.9781L43.8283 11.5447C42.8228 10.2176 41.7296 8.95928 40.5561 7.77808C39.4115 6.65634 38.0996 5.71923 36.6672 5.0003C36.3672 4.82808 36.0394 4.6503 35.7394 4.48919C35.4394 4.32808 35.0394 4.11142 34.8783 4.00586H34.845H34.8117C34.5728 3.92808 33.5283 3.4503 33.145 3.27808L32.8561 3.72808ZM23.045 2.11697C22.4894 2.11697 21.9006 2.31142 20.6783 2.88364C18.69 3.93379 16.9624 5.41646 15.6228 7.22253C14.6642 8.58953 13.8733 10.0668 13.2672 11.6225L13.1228 12.0003H23.8894L24.1006 2.32253L23.4839 2.16697C23.3393 2.13744 23.1925 2.12071 23.045 2.11697Z" fill="#222222"/>
</svg>
