<svg width="14" height="16" viewBox="0 0 14 16" fill="none" xmlns="http://www.w3.org/2000/svg">
<path id="Vector" d="M8.8421 5.81818H10.3158V7.27273H8.8421V5.81818ZM10.3158 2.90909H8.8421V4.36364H10.3158V2.90909ZM5.89474 10.1818H7.36842V8.72727H5.89474V10.1818ZM7.36842 2.90909H5.89474V4.36364H7.36842V2.90909ZM5.89474 7.27273H7.36842V5.81818H5.89474V7.27273ZM4.42105 2.90909H2.94737V4.36364H4.42105V2.90909ZM4.42105 5.81818H2.94737V7.27273H4.42105V5.81818ZM8.51053 14.5455H7.36842V12H5.89474V14.5455H1.47368V1.45455H11.7895V7.29455C12.3126 7.33818 12.8137 7.49818 13.2632 7.73091V0H0V16H9.51263C9.21053 15.5927 8.8421 15.0982 8.51053 14.5455ZM2.94737 13.0909H4.42105V11.6364H2.94737V13.0909ZM4.42105 8.72727H2.94737V10.1818H4.42105V8.72727ZM14 11.2727C14 13.1636 11.4211 16 11.4211 16C11.4211 16 8.8421 13.1636 8.8421 11.2727C8.8421 9.89091 10.0211 8.72727 11.4211 8.72727C12.8211 8.72727 14 9.89091 14 11.2727ZM12.3053 11.3455C12.3053 10.9091 11.8632 10.4727 11.4211 10.4727C10.9789 10.4727 10.5368 10.8364 10.5368 11.3455C10.5368 11.7818 10.9053 12.2182 11.4211 12.2182C11.9368 12.2182 12.3789 11.7818 12.3053 11.3455Z" fill="black"/>
</svg>
