<svg width="21" height="21" viewBox="0 0 21 21" fill="none" xmlns="http://www.w3.org/2000/svg">
<g id="material-symbols:mail-outline">
<path id="Vector" d="M3.5 17.5C3.01875 17.5 2.60663 17.3285 2.26363 16.9855C1.92063 16.6425 1.74942 16.2307 1.75 15.75V5.25C1.75 4.76875 1.9215 4.35663 2.2645 4.01363C2.6075 3.67063 3.01933 3.49942 3.5 3.5H17.5C17.9813 3.5 18.3934 3.6715 18.7364 4.0145C19.0794 4.3575 19.2506 4.76933 19.25 5.25V15.75C19.25 16.2313 19.0785 16.6434 18.7355 16.9864C18.3925 17.3294 17.9807 17.5006 17.5 17.5H3.5ZM10.5 11.375L3.5 7V15.75H17.5V7L10.5 11.375ZM10.5 9.625L17.5 5.25H3.5L10.5 9.625ZM3.5 7V5.25V15.75V7Z" fill="black"/>
</g>
</svg>
