<svg width="64" height="60" viewBox="0 0 64 60" fill="none" xmlns="http://www.w3.org/2000/svg">
<circle cx="40" cy="36" r="24" fill="#FF6633" fill-opacity="0.2"/>
<circle cx="25" cy="25" r="24.25" stroke="#222222" stroke-width="1.5"/>
<path d="M31.9997 29.515C31.9997 24.9 28.2197 24.374 25.1827 23.952C21.8727 23.492 19.9997 23.092 19.9997 20.242C19.9997 17.85 22.5067 17 24.6537 17C25.7236 16.9654 26.7865 17.1857 27.7546 17.6426C28.7227 18.0995 29.5683 18.78 30.2217 19.628L31.7777 18.372C31.0779 17.4722 30.2072 16.7195 29.2157 16.1573C28.2241 15.5951 27.1311 15.2344 25.9997 15.096V12H23.9997V15.022C20.3847 15.242 17.9997 17.282 17.9997 20.242C17.9997 24.972 21.8297 25.505 24.9067 25.932C28.1597 26.385 29.9997 26.774 29.9997 29.515C29.9997 32.547 26.8667 33 24.9997 33C21.5697 33 20.1217 32.036 18.7777 30.372L17.2217 31.628C18.0144 32.6727 19.0398 33.5182 20.2163 34.0975C21.3929 34.6767 22.6883 34.9737 23.9997 34.965V38H25.9997V34.955C29.7257 34.651 31.9997 32.628 31.9997 29.515Z" fill="black"/>
</svg>
