<svg width="11" height="11" viewBox="0 0 11 11" fill="none" xmlns="http://www.w3.org/2000/svg">
<path d="M10.7979 8.61657L8.2879 6.33441C8.16925 6.22657 8.01333 6.16906 7.85307 6.17401C7.69282 6.17897 7.54075 6.246 7.42899 6.36096L5.95138 7.88055C5.59571 7.81263 4.88068 7.58973 4.14465 6.85556C3.40862 6.11892 3.18572 5.40204 3.11965 5.04885L4.63801 3.57063C4.75312 3.45894 4.82025 3.30686 4.82521 3.14655C4.83016 2.98625 4.77255 2.83031 4.66456 2.71173L2.383 0.202339C2.27497 0.0833883 2.12482 0.0112357 1.96445 0.00120517C1.80408 -0.00882533 1.64611 0.0440566 1.5241 0.14862L0.184181 1.29773C0.0774269 1.40487 0.0137088 1.54746 0.00511389 1.69846C-0.00414821 1.85283 -0.180745 5.50948 2.65469 8.34612C5.12829 10.8191 8.22677 11 9.08011 11C9.20484 11 9.28141 10.9963 9.30179 10.9951C9.45277 10.9866 9.59529 10.9226 9.70191 10.8154L10.8504 9.47486C10.9554 9.35323 11.0087 9.19539 10.9989 9.03503C10.989 8.87467 10.9169 8.7245 10.7979 8.61657Z" fill="#161616"/>
</svg>
