<svg viewBox="0 0 64 54" fill="none" xmlns="http://www.w3.org/2000/svg">
<circle cx="40" cy="29.5" r="24" fill="#FF6633" fill-opacity="0.2"/>
<g clip-path="url(#clip0_3268_118789)">
<path d="M41.2745 6.54347C41.0669 6.37529 40.7945 6.30931 40.5327 6.36381C40.4727 6.36381 34.5 7.5997 29.1818 5.81936C23.58 3.97914 21.2727 0.897586 21.2727 0.870364C21.1196 0.657179 20.8798 0.522533 20.6178 0.502576C20.3558 0.482618 20.0983 0.579393 19.9145 0.766919C17.3898 3.14213 14.3289 4.87519 10.9909 5.81936C7.75327 6.63409 4.37992 6.75838 1.09091 6.18414C0.829006 6.12105 0.552575 6.18067 0.340135 6.34607C0.127695 6.51146 0.00245894 6.76456 0 7.03347V25.354C0 25.6916 0.0545457 33.6895 5.91273 38.9651C11.0182 43.5711 19.7018 49.119 20.0945 49.3531C20.3734 49.5192 20.7211 49.5192 21 49.3531C26.1182 46.4299 30.9776 43.0767 35.5255 39.3299C41.5582 34.1904 41.6018 26.3885 41.6018 26.089V7.22947C41.602 6.96322 41.4818 6.71111 41.2745 6.54347ZM39.8182 26.089C39.8182 26.1598 39.7636 33.4118 34.3636 38.0069C30.0407 41.5746 25.4285 44.7779 20.5745 47.5837C18.7091 46.3696 11.4545 41.5894 7.09091 37.6639C1.83818 32.9164 1.77273 25.4303 1.77273 25.354V8.09514C5.00003 8.52588 8.27992 8.34112 11.4382 7.5507C14.7795 6.62517 17.8689 4.95962 20.4764 2.67792C21.5673 3.83214 24.1255 6.04803 28.6255 7.53981C33.1255 9.03159 37.7618 8.57425 39.8182 8.27481V26.089ZM30.3491 17.3507L19.8655 28.0871L14.0509 22.7353C13.6909 22.4045 13.1305 22.4277 12.7991 22.787C12.4677 23.1463 12.4909 23.7057 12.8509 24.0365L19.2982 29.9655C19.65 30.2899 20.1968 30.2754 20.5309 29.9328L31.6364 18.5811C31.9783 18.2308 31.9709 17.6702 31.62 17.3289C31.269 16.9876 30.7074 16.995 30.3655 17.3453L30.3491 17.3507Z" fill="#222222"/>
</g>
<defs>
<clipPath id="clip0_3268_118789">
<rect width="42" height="49" fill="white" transform="translate(0 0.5)"/>
</clipPath>
</defs>
</svg>
