<svg width="17" height="16" viewBox="0 0 17 16" fill="none" xmlns="http://www.w3.org/2000/svg">
<path id="Vector" d="M8.1001 0C3.6889 0 0.100098 3.5888 0.100098 8V11.3144C0.100098 12.1336 0.817698 12.8 1.7001 12.8H2.5001C2.71227 12.8 2.91575 12.7157 3.06578 12.5657C3.21581 12.4157 3.3001 12.2122 3.3001 12V7.8856C3.3001 7.67343 3.21581 7.46994 3.06578 7.31991C2.91575 7.16989 2.71227 7.0856 2.5001 7.0856H1.7737C2.2185 3.9896 4.8825 1.6 8.1001 1.6C11.3177 1.6 13.9817 3.9896 14.4265 7.0856H13.7001C13.4879 7.0856 13.2844 7.16989 13.1344 7.31991C12.9844 7.46994 12.9001 7.67343 12.9001 7.8856V12.8C12.9001 13.6824 12.1825 14.4 11.3001 14.4H9.7001V13.6H6.5001V16H11.3001C13.0649 16 14.5001 14.5648 14.5001 12.8C15.3825 12.8 16.1001 12.1336 16.1001 11.3144V8C16.1001 3.5888 12.5113 0 8.1001 0Z" fill="black"/>
</svg>
